<svg width="38" height="38" viewBox="0 0 38 38" fill="none" xmlns="http://www.w3.org/2000/svg">
<path d="M3.50305 15.7343H4.8093L4.15618 14.0718L3.50305 15.7343Z" fill="#2FABF7"/>
<path d="M19.7124 14.3094C19.5937 14.25 19.4156 14.25 19.2374 14.25H18.0499V15.2H19.2374C19.4156 15.2 19.5937 15.2 19.7124 15.1406C19.8312 15.0813 19.8906 14.9031 19.8906 14.725C19.9499 14.4875 19.8312 14.3688 19.7124 14.3094Z" fill="#228FE0"/>
<path d="M32.4187 12.5281V13.2406L32.0625 12.5281H29.2719V13.2406L28.9156 12.5281H25.1156C24.4625 12.5281 23.9281 12.6468 23.4531 12.8843V12.5281H20.7812V12.8843C20.4844 12.6468 20.1281 12.5281 19.6531 12.5281H10.0937L9.44062 14.0125L8.7875 12.5281H5.75937V13.2406L5.40312 12.5281H2.85L1.6625 15.3187L0.296875 18.4062H1.6625H3.325L3.68125 17.4562H4.5125L4.86875 18.4062H8.3125V17.6937L8.60937 18.4062H10.3312L10.6281 17.6937V18.4062H18.8812V16.8625H19C19.1187 16.8625 19.1187 16.8625 19.1187 17.0406V18.3468H23.3937V17.9906C23.75 18.1687 24.2844 18.3468 24.9969 18.3468H26.7781L27.1344 17.3968H27.9656L28.3219 18.3468H31.7656V17.4562L32.3 18.3468H35.0906V12.5281H32.4187ZM12.35 17.5156H11.3406V14.25L9.91562 17.5156H9.025L7.6 14.25V17.5156H5.58125L5.16562 16.625H3.14687L2.79062 17.575H1.6625L3.44375 13.3593H4.92812L6.59062 17.3375V13.3593H8.19375L9.5 16.2093L10.6875 13.3593H12.35V17.5156ZM16.3875 14.25H14.0719V15.0218H16.3281V15.8531H14.0719V16.6843H16.3875V17.575H13.0625V13.3593H16.3875V14.25ZM20.8406 15.9718C20.9594 16.2093 21.0187 16.3875 21.0187 16.7437V17.575H20.0094V17.0406C20.0094 16.8031 20.0094 16.4468 19.8312 16.2093C19.6531 16.0312 19.475 16.0312 19.1187 16.0312H18.05V17.575H17.0406V13.3593H19.2969C19.8312 13.3593 20.1875 13.3593 20.4844 13.5375C20.7812 13.7156 20.9594 14.0125 20.9594 14.4875C20.9594 15.1406 20.5437 15.4968 20.2469 15.6156C20.5437 15.675 20.7219 15.8531 20.8406 15.9718ZM22.6219 17.5156H21.6125V13.3H22.6219V17.5156ZM34.3187 17.5156H32.8937L30.9937 14.3687V17.5156H28.975L28.6187 16.625H26.5406L26.1844 17.575H25.0562C24.5812 17.575 23.9875 17.4562 23.6312 17.1C23.275 16.7437 23.0969 16.2687 23.0969 15.4968C23.0969 14.9031 23.2156 14.3093 23.6312 13.8343C23.9281 13.4781 24.4625 13.3593 25.1156 13.3593H26.0656V14.25H25.1156C24.7594 14.25 24.5812 14.3093 24.3437 14.4875C24.1656 14.6656 24.0469 15.0218 24.0469 15.4375C24.0469 15.9125 24.1062 16.2093 24.3437 16.4468C24.5219 16.625 24.7594 16.6843 25.0562 16.6843H25.4719L26.8375 13.4187H28.3219L29.9844 17.3968V13.4187H31.4687L33.1906 16.3281V13.4187H34.2V17.5156H34.3187Z" fill="#0571C1"/>
<path d="M26.8969 15.7343H28.2625L27.6094 14.0718L26.8969 15.7343Z" fill="#228FE0"/>
<path d="M16.803 24.2843V20.8999L15.2593 22.5624L16.803 24.2843Z" fill="#228FE0"/>
<path d="M10.45 21.3157V22.0875H12.6468V22.9188H10.45V23.8094H12.8843L14.0125 22.5625L12.9437 21.3157H10.45Z" fill="#2FABF7"/>
<path d="M19.0594 21.3157H17.8125V22.3844H19.1188C19.475 22.3844 19.7125 22.2063 19.7125 21.85C19.6531 21.4938 19.4156 21.3157 19.0594 21.3157Z" fill="#228FE0"/>
<path d="M37.4062 22.325V19.6531H36.6937H34.9124C34.3781 19.6531 33.9624 19.7718 33.6656 20.0093V19.6531H30.9343C30.5187 19.6531 29.9843 19.7718 29.7468 20.0093V19.6531H24.9374V20.0093C24.5812 19.7125 23.9281 19.6531 23.6312 19.6531H20.4249V20.0093C20.1281 19.7125 19.4156 19.6531 19.0593 19.6531H15.4968L14.6656 20.5437L13.8937 19.6531H8.54993V25.4718H13.7749L14.6062 24.5812L15.3781 25.4718H18.5843V24.1062H18.9999C19.4156 24.1062 19.9499 24.1062 20.3656 23.9281V25.5312H23.0374V23.9875H23.1562C23.3343 23.9875 23.3343 23.9875 23.3343 24.1656V25.5312H31.4093C31.9437 25.5312 32.4781 25.4125 32.7749 25.175V25.5312H35.3281C35.8624 25.5312 36.3968 25.4718 36.7531 25.2343C37.3468 24.8781 37.7031 24.225 37.7031 23.4531C37.7031 23.0375 37.5843 22.6218 37.4062 22.325ZM18.9999 23.275H17.8124V24.7H15.9124L14.7249 23.3343L13.4781 24.7H9.5593V20.4843H13.5374L14.7249 21.85L15.9718 20.4843H19.1187C19.8906 20.4843 20.7812 20.7218 20.7812 21.85C20.7218 23.0375 19.8906 23.275 18.9999 23.275ZM24.9374 23.0375C25.0562 23.2156 25.1156 23.4531 25.1156 23.8093V24.6406H24.1062V24.1062C24.1062 23.8687 24.1062 23.4531 23.9281 23.275C23.8093 23.0968 23.5718 23.0968 23.2156 23.0968H22.1468V24.6406H21.1374V20.425H23.3937C23.8687 20.425 24.2843 20.425 24.5812 20.6031C24.8781 20.7812 25.1156 21.0781 25.1156 21.5531C25.1156 22.2062 24.6999 22.5625 24.4031 22.6812C24.6999 22.8 24.8781 22.9187 24.9374 23.0375ZM29.0343 21.3156H26.7187V22.0875H28.9749V22.9187H26.7187V23.75H29.0343V24.6406H25.7093V20.425H29.0343V21.3156ZM31.528 24.6406H29.6281V23.75H31.528C31.7062 23.75 31.8249 23.75 31.9437 23.6312C32.0031 23.5718 32.0624 23.4531 32.0624 23.3343C32.0624 23.2156 32.0031 23.0968 31.9437 23.0375C31.8843 22.9781 31.7656 22.9187 31.5874 22.9187C30.6374 22.8593 29.5093 22.9187 29.5093 21.6125C29.5093 21.0187 29.8655 20.3656 30.9343 20.3656H32.8937V21.375H31.0531C30.8749 21.375 30.7562 21.375 30.6374 21.4343C30.5187 21.4937 30.5187 21.6125 30.5187 21.7312C30.5187 21.9093 30.6374 21.9687 30.7562 22.0281C30.8749 22.0875 30.9937 22.0875 31.1124 22.0875H31.6468C32.1812 22.0875 32.5374 22.2062 32.7749 22.4437C32.9531 22.6218 33.0718 22.9187 33.0718 23.3343C33.0718 24.225 32.5374 24.6406 31.528 24.6406ZM36.6343 24.225C36.3968 24.4625 35.9812 24.6406 35.3874 24.6406H33.4874V23.75H35.3874C35.5655 23.75 35.6843 23.75 35.8031 23.6312C35.8624 23.5718 35.9218 23.4531 35.9218 23.3343C35.9218 23.2156 35.8624 23.0968 35.8031 23.0375C35.7437 22.9781 35.6249 22.9187 35.4468 22.9187C34.4968 22.8593 33.3687 22.9187 33.3687 21.6125C33.3687 21.0187 33.7249 20.3656 34.7937 20.3656H36.7531V21.375H34.9718C34.7937 21.375 34.6749 21.375 34.5562 21.4343C34.4374 21.4937 34.4374 21.6125 34.4374 21.7312C34.4374 21.9093 34.4968 21.9687 34.6749 22.0281C34.7937 22.0875 34.9124 22.0875 35.0312 22.0875H35.5656C36.0999 22.0875 36.4562 22.2062 36.6937 22.4437C36.7531 22.4437 36.7531 22.5031 36.7531 22.5031C36.9312 22.7406 36.9906 23.0375 36.9906 23.3343C36.9906 23.6906 36.8718 23.9875 36.6343 24.225Z" fill="#0571C1"/>
<path d="M23.8687 21.4344C23.7499 21.375 23.5718 21.375 23.3937 21.375H22.2062V22.325H23.3937C23.5718 22.325 23.7499 22.325 23.8687 22.2656C23.9874 22.2063 24.0468 22.0281 24.0468 21.85C24.1062 21.6125 23.9874 21.4937 23.8687 21.4344Z" fill="#228FE0"/>
<path d="M19.7125 14.3094C19.5938 14.25 19.4157 14.25 19.2376 14.25H18.05V15.2H19.2376C19.4157 15.2 19.5938 15.2 19.7125 15.1406C19.8313 15.0813 19.8907 14.9031 19.8907 14.725C19.95 14.4875 19.8313 14.3688 19.7125 14.3094Z" fill="#228FE0"/>
<path d="M26.8969 15.7343H28.2625L27.6094 14.0718L26.8969 15.7343Z" fill="#228FE0"/>
<path d="M16.8031 24.2843V20.8999L15.2594 22.5624L16.8031 24.2843Z" fill="#228FE0"/>
<path d="M19.0594 21.3154H17.8125V22.3842H19.1188C19.475 22.3842 19.7125 22.2061 19.7125 21.8498C19.6531 21.4936 19.4156 21.3154 19.0594 21.3154Z" fill="#228FE0"/>
<path d="M23.8688 21.4344C23.75 21.375 23.5719 21.375 23.3938 21.375H22.2063V22.325H23.3938C23.5719 22.325 23.75 22.325 23.8688 22.2656C23.9875 22.2063 24.0469 22.0281 24.0469 21.85C24.1063 21.6125 23.9875 21.4937 23.8688 21.4344Z" fill="#228FE0"/>
<path d="M18.6437 24.5218L17.8124 23.6312V24.6406H15.8531L14.6656 23.275L13.3593 24.6406H9.44055V20.4843H13.4187L14.6656 21.85L15.2593 21.1375L13.7749 19.6531H8.54993V25.4718H13.7749L14.6656 24.5812L15.4374 25.4718H18.6437V24.5218Z" fill="#2FABF7"/>
<path d="M12.4688 18.3468L11.6969 17.5156H11.3406V17.1593L10.45 16.2687L9.85625 17.5156H9.025L7.6 14.25V17.5156H5.58125L5.16563 16.625H3.14688L2.73125 17.5156H1.6625L3.44375 13.3593H4.92812L6.59063 17.3375V13.3593H7.48125L6.65 12.5281H5.75938V13.2406L5.4625 12.5281H2.85L1.6625 15.3187L0.296875 18.3468H1.6625H3.38437L3.74063 17.4562H4.57188L4.9875 18.3468H8.3125V17.6343L8.60938 18.3468H10.3313L10.6281 17.6343V18.3468H12.4688Z" fill="#2FABF7"/>
<path d="M9.73748 15.6155L8.78748 14.6655L9.49998 16.2093L9.73748 15.6155Z" fill="#2FABF7"/>
<path d="M36.7531 25.1749C37.2875 24.8186 37.6437 24.2249 37.7031 23.5717L36.8719 22.7405C36.9312 22.9186 36.9906 23.0967 36.9906 23.3342C36.9906 23.6905 36.8719 23.9874 36.6344 24.2249C36.3969 24.4624 35.9812 24.6405 35.3875 24.6405H33.4875V23.7499H35.3875C35.5656 23.7499 35.6844 23.7499 35.8031 23.6311C35.8625 23.5717 35.9219 23.453 35.9219 23.3342C35.9219 23.2155 35.8625 23.0967 35.8031 23.0374C35.7437 22.978 35.625 22.9186 35.4469 22.9186C34.4969 22.8592 33.3687 22.9186 33.3687 21.6124C33.3687 21.0186 33.725 20.4842 34.6156 20.3655L33.9625 19.7124C33.8437 19.7717 33.7844 19.8311 33.725 19.8311V19.4749H30.9937C30.5781 19.4749 30.0437 19.5936 29.8062 19.8311V19.4749H24.9375V19.8311C24.5812 19.5342 23.9281 19.4749 23.6312 19.4749H20.425V19.8311C20.1281 19.5342 19.4156 19.4749 19.0594 19.4749H15.4969L14.6656 20.3655L13.8937 19.4749H13.2406L15.0219 21.2561L15.9125 20.3061H19.0594C19.8312 20.3061 20.7219 20.5436 20.7219 21.6717C20.7219 22.8592 19.8906 23.0967 19 23.0967H17.8125V23.9874L18.7031 24.878V23.9874H19C19.4156 23.9874 19.95 23.9874 20.3656 23.8092V25.4124H23.0375V23.8686H23.1562C23.3344 23.8686 23.3344 23.8686 23.3344 24.0467V25.4124H31.4094C31.9437 25.4124 32.4781 25.2936 32.775 25.0561V25.4124H35.3281C35.8031 25.4717 36.3375 25.4124 36.7531 25.1749ZM24.9375 23.0374C25.0562 23.2155 25.1156 23.453 25.1156 23.8092V24.6405H24.1062V24.1061C24.1062 23.8686 24.1062 23.453 23.9281 23.2749C23.8094 23.0967 23.5718 23.0967 23.2156 23.0967H22.1469V24.6405H21.1375V20.4249H23.3937C23.8687 20.4249 24.2844 20.4249 24.5812 20.603C24.8781 20.7811 25.1156 21.078 25.1156 21.553C25.1156 22.2061 24.7 22.5624 24.4031 22.6811C24.7 22.7999 24.8781 22.9186 24.9375 23.0374ZM29.0344 21.3155H26.7187V22.0874H28.975V22.9186H26.7187V23.7499H29.0344V24.6405H25.7094V20.4249H29.0344V21.3155ZM31.5281 24.6405H29.6281V23.7499H31.5281C31.7062 23.7499 31.825 23.7499 31.9437 23.6311C32.0031 23.5717 32.0625 23.453 32.0625 23.3342C32.0625 23.2155 32.0031 23.0967 31.9437 23.0374C31.8843 22.978 31.7656 22.9186 31.5875 22.9186C30.6375 22.8592 29.5094 22.9186 29.5094 21.6124C29.5094 21.0186 29.8656 20.3655 30.9344 20.3655H32.8937V21.3749H31.0531C30.875 21.3749 30.7562 21.3749 30.6375 21.4342C30.5187 21.4936 30.5187 21.6124 30.5187 21.7311C30.5187 21.9092 30.6375 21.9686 30.7562 22.028C30.875 22.0874 30.9937 22.0874 31.1125 22.0874H31.6469C32.1812 22.0874 32.5375 22.2061 32.775 22.4436C32.9531 22.6217 33.0719 22.9186 33.0719 23.3342C33.0719 24.2249 32.5375 24.6405 31.5281 24.6405Z" fill="#228FE0"/>
<path d="M34.3782 21.731C34.3782 21.9091 34.4375 21.9685 34.6157 22.0279C34.7344 22.0873 34.8532 22.0873 34.9719 22.0873H35.5063C35.8625 22.0873 36.1 22.1466 36.3375 22.2654L35.4469 21.3748H34.9125C34.7344 21.3748 34.6157 21.3748 34.4969 21.4341C34.4375 21.4935 34.3782 21.6123 34.3782 21.731Z" fill="#228FE0"/>
<path d="M32.2999 18.1687L32.4187 18.3468H32.4781L32.2999 18.1687Z" fill="#228FE0"/>
<path d="M29.0343 14.9031L30.0437 17.3375V15.9125L29.0343 14.9031Z" fill="#228FE0"/>
<path d="M18.8812 16.8624H18.9999C19.1187 16.8624 19.1187 16.8624 19.1187 17.0405V18.3468H23.3937V17.9905C23.7499 18.1687 24.2843 18.3468 24.9968 18.3468H26.778L27.1343 17.3968H27.9655L28.3218 18.3468H31.7656V17.753L30.9343 16.9218V17.5749H28.9156L28.6187 16.6249H26.5406L26.1843 17.5749H25.0562C24.5812 17.5749 23.9874 17.4562 23.6312 17.0999C23.2749 16.7437 23.0968 16.2687 23.0968 15.4968C23.0968 14.903 23.2156 14.3093 23.6312 13.8343C23.9281 13.478 24.4624 13.3593 25.1156 13.3593H26.0656V14.2499H25.1156C24.7593 14.2499 24.5812 14.3093 24.3437 14.4874C24.1656 14.6655 24.0468 15.0218 24.0468 15.4374C24.0468 15.9124 24.1062 16.2093 24.3437 16.4468C24.5218 16.6249 24.7593 16.6843 25.0562 16.6843H25.4718L26.8374 13.4187H27.4312L26.5999 12.5874H25.0562C24.4031 12.5874 23.8687 12.7062 23.3937 12.9437V12.5874H20.7812V12.9437C20.4843 12.7062 20.1281 12.5874 19.6531 12.5874H10.0937L9.44055 14.0718L8.78743 12.5874H6.17493L7.00618 13.4187H8.19368L9.20305 15.6155L9.5593 15.9718L10.6281 13.3593H12.2906V17.5749H11.2812V14.3093L10.2718 16.6843L11.9937 18.4062H18.8218L18.8812 16.8624ZM21.6124 13.3593H22.6218V17.5749H21.6124V13.3593ZM16.3874 14.2499H14.0718V15.0218H16.3281V15.853H14.0718V16.6843H16.3874V17.5749H13.0624V13.3593H16.3874V14.2499ZM18.0499 17.5155H17.0406V13.2999H19.2968C19.8312 13.2999 20.1874 13.2999 20.4843 13.478C20.7812 13.6562 20.9593 13.953 20.9593 14.428C20.9593 15.0812 20.5437 15.4374 20.2468 15.5562C20.4843 15.6155 20.6624 15.7937 20.7218 15.9124C20.8406 16.1499 20.8999 16.328 20.8999 16.6843V17.5155H19.8906V16.9812C19.8906 16.7437 19.8906 16.3874 19.7124 16.1499C19.6531 16.0312 19.4749 16.0312 19.1187 16.0312H18.0499V17.5155Z" fill="#228FE0"/>
</svg>
