<svg width="33" height="26" viewBox="0 0 33 26" fill="none" xmlns="http://www.w3.org/2000/svg">
<g clip-path="url(#clip0_30_539)">
<path fill-rule="evenodd" clip-rule="evenodd" d="M33.0001 10.3517C33.0001 16.0687 28.4311 20.7033 22.7949 20.7033C17.1587 20.7033 12.5897 16.0687 12.5897 10.3517C12.5897 4.63459 17.1587 0 22.7949 0C28.4311 0 33.0001 4.63459 33.0001 10.3517Z" fill="#F79F1A"/>
<path fill-rule="evenodd" clip-rule="evenodd" d="M20.4104 10.3517C20.4104 16.0687 15.8413 20.7033 10.2052 20.7033C4.56902 20.7033 0 16.0687 0 10.3517C0 4.63459 4.56902 0 10.2052 0C15.8413 0 20.4104 4.63459 20.4104 10.3517Z" fill="#EA001B"/>
<path fill-rule="evenodd" clip-rule="evenodd" d="M16.5 2.20264C14.1189 4.09769 12.5905 7.04248 12.5905 10.3506C12.5905 13.6586 14.1189 16.6057 16.5 18.5007C18.8812 16.6057 20.4096 13.6586 20.4096 10.3506C20.4096 7.04248 18.8812 4.09769 16.5 2.20264Z" fill="#FF5F01"/>
<path d="M32.9809 15.8441V15.4746H32.8856L32.776 15.7287L32.6664 15.4746H32.5711V15.8441H32.6383V15.5654L32.7411 15.8056H32.8108L32.9136 15.5648V15.8441H32.9809ZM32.3774 15.8441V15.5377H32.4995V15.4752H32.1887V15.5377H32.3108V15.8441H32.3774Z" fill="#F79F1A"/>
<path d="M2.27002 25.8241H1.69092V23.0881H2.25866V23.4215C2.25866 23.4215 2.75733 23.014 3.0535 23.0191C3.62938 23.029 3.97325 23.5249 3.97325 23.5249C3.97325 23.5249 4.25219 23.0191 4.88164 23.0191C5.81245 23.0191 5.94899 23.8813 5.94899 23.8813V25.8126H5.39261V24.1112C5.39261 24.1112 5.3946 23.5939 4.7908 23.5939C4.1664 23.5939 4.10951 24.1112 4.10951 24.1112V25.8126H3.53041V24.0997C3.53041 24.0997 3.47478 23.5594 2.95131 23.5594C2.27145 23.5594 2.25866 24.1112 2.25866 24.1112L2.27002 25.8241Z" fill="white"/>
<path d="M19.8811 23.0186C19.5849 23.0135 19.0863 23.4209 19.0863 23.4209V23.0883H18.5179V25.8237H19.0974L19.0863 24.111C19.0863 24.111 19.0991 23.5603 19.779 23.5603C19.9052 23.5603 20.0033 23.5913 20.0809 23.639V23.6367L20.2696 23.104C20.1557 23.0555 20.0262 23.0211 19.8811 23.0186Z" fill="white"/>
<path d="M28.0387 23.0186C27.7425 23.0135 27.2439 23.4209 27.2439 23.4209V23.0883H26.6755V25.8237H27.255L27.2439 24.111C27.2439 24.111 27.2567 23.5603 27.9366 23.5603C28.0628 23.5603 28.1609 23.5913 28.2385 23.639V23.6367L28.4272 23.104C28.3133 23.0555 28.1838 23.0211 28.0387 23.0186Z" fill="white"/>
<path d="M7.82152 23.0076C6.95486 23.0076 6.49622 23.7962 6.4939 24.4551C6.49152 25.1304 7.01603 25.9094 7.84594 25.9094C8.33011 25.9094 8.72786 25.5475 8.72786 25.5475L8.72681 25.8262H9.29682V23.0874H8.7248V23.4324C8.7248 23.4324 8.35127 23.0076 7.82152 23.0076ZM7.93253 23.565C8.39816 23.565 8.77616 23.9751 8.77616 24.4798C8.77616 24.9846 8.39816 25.3924 7.93253 25.3924C7.4669 25.3924 7.09111 24.9846 7.09111 24.4798C7.09111 23.9751 7.4669 23.565 7.93253 23.565Z" fill="white"/>
<path d="M24.4451 23.0076C23.5784 23.0076 23.1198 23.7962 23.1174 24.4551C23.1151 25.1304 23.6396 25.9094 24.4695 25.9094C24.9536 25.9094 25.3514 25.5475 25.3514 25.5475L25.3503 25.8262H25.9204V23.0874H25.3483V23.4324C25.3483 23.4324 24.9748 23.0076 24.4451 23.0076ZM24.5561 23.565C25.0217 23.565 25.3997 23.9751 25.3997 24.4798C25.3997 24.9846 25.0217 25.3924 24.5561 25.3924C24.0904 25.3924 23.7146 24.9846 23.7146 24.4798C23.7146 23.9751 24.0904 23.565 24.5561 23.565Z" fill="white"/>
<path d="M29.9182 23.0074C29.0515 23.0074 28.5929 23.796 28.5906 24.4549C28.5882 25.1303 29.1127 25.9092 29.9426 25.9092C30.4268 25.9092 30.8245 25.5473 30.8245 25.5473L30.8235 25.826H31.3935V22.0061H30.8215V23.4322C30.8215 23.4322 30.448 23.0074 29.9182 23.0074ZM30.0292 23.5648C30.4948 23.5648 30.8728 23.9749 30.8728 24.4797C30.8728 24.9844 30.4948 25.3922 30.0292 25.3922C29.5636 25.3922 29.1878 24.9844 29.1878 24.4797C29.1878 23.9749 29.5636 23.5648 30.0292 23.5648Z" fill="white"/>
<path d="M11.0361 25.9161C10.4457 25.9161 9.90063 25.5482 9.90063 25.5482L10.1504 25.1573C10.1504 25.1573 10.6662 25.3988 11.0361 25.3988C11.2765 25.3988 11.6785 25.3202 11.6833 25.0769C11.6885 24.8197 11.0077 24.7435 11.0077 24.7435C11.0077 24.7435 9.99147 24.7294 9.99147 23.8813C9.99147 23.3478 10.499 23.0076 11.1497 23.0076C11.5256 23.0076 12.2284 23.341 12.2284 23.341L11.9445 23.7893C11.9445 23.7893 11.4019 23.5698 11.1156 23.5594C10.8739 23.5506 10.5819 23.6678 10.5819 23.8813C10.5819 24.4614 12.2738 23.8361 12.2738 25.0079C12.2738 25.7767 11.5848 25.9161 11.0361 25.9161Z" fill="white"/>
<path d="M13.214 22.2949V23.0906H12.7101V23.666H13.214V25.0416C13.214 25.0416 13.1694 25.9722 14.1576 25.9722C14.4308 25.9722 14.9657 25.7676 14.9657 25.7676L14.737 25.1697C14.737 25.1697 14.5243 25.3534 14.2841 25.3473C13.8275 25.3356 13.8401 25.0394 13.8401 25.0394V23.666H14.7814V23.0906H13.8401V22.2949H13.214Z" fill="white"/>
<path d="M16.6442 23.0413C15.7149 23.0413 15.2506 23.8162 15.2544 24.4888C15.2583 25.1805 15.6772 25.9588 16.6997 25.9588C17.1373 25.9588 17.752 25.5699 17.752 25.5699L17.4878 25.1047C17.4878 25.1047 17.0684 25.4058 16.6997 25.4058C15.9616 25.4058 15.9138 24.6753 15.9138 24.6753H17.8897C17.8897 24.6753 18.0371 23.0413 16.6442 23.0413ZM16.5598 23.5785C16.5817 23.5772 16.6052 23.5785 16.6287 23.5785C17.324 23.5785 17.3191 24.2438 17.3191 24.2438H15.9138C15.9138 24.2438 15.8805 23.6176 16.5598 23.5785Z" fill="white"/>
<path d="M22.5216 25.0975L22.7865 25.634C22.7865 25.634 22.3666 25.9104 21.8953 25.9104C20.9196 25.9104 20.3778 25.1669 20.3778 24.4634C20.3778 23.3578 21.24 23.0327 21.823 23.0327C22.3523 23.0327 22.8106 23.3416 22.8106 23.3416L22.5135 23.8781C22.5135 23.8781 22.3334 23.5936 21.807 23.5936C21.2814 23.5936 21.0041 24.0524 21.0041 24.4878C21.0041 24.9757 21.3269 25.3901 21.815 25.3901C22.1979 25.3901 22.5216 25.0975 22.5216 25.0975Z" fill="white"/>
<path d="M32.5886 25.4487C32.5084 25.4507 32.4423 25.4777 32.3904 25.5295C32.3384 25.5814 32.3115 25.6464 32.3097 25.7244C32.3115 25.8018 32.3384 25.8665 32.3904 25.9187C32.4423 25.9708 32.5084 25.998 32.5886 26C32.667 25.998 32.7323 25.9708 32.7844 25.9187C32.8365 25.8665 32.8636 25.8018 32.8656 25.7244C32.8636 25.6464 32.8366 25.5814 32.7846 25.5295C32.7327 25.4777 32.6673 25.4507 32.5886 25.4487ZM32.5886 25.9392C32.5275 25.9377 32.4771 25.9168 32.4374 25.8764C32.3977 25.836 32.3772 25.7853 32.3758 25.7244C32.3772 25.6631 32.3977 25.6125 32.4374 25.5724C32.4771 25.5324 32.5275 25.5117 32.5886 25.5102C32.6485 25.5117 32.6981 25.5324 32.7375 25.5725C32.7769 25.6125 32.7974 25.6631 32.7988 25.7244C32.7974 25.7853 32.7769 25.836 32.7375 25.8764C32.6981 25.9168 32.6485 25.9377 32.5886 25.9392ZM32.6046 25.5953H32.4879V25.8514H32.5419V25.7555H32.5666L32.6433 25.8514H32.7081L32.6253 25.7548C32.6512 25.7515 32.6711 25.743 32.685 25.7294C32.6989 25.7157 32.7059 25.6983 32.7061 25.6771C32.7059 25.6518 32.6971 25.6319 32.6796 25.6175C32.6622 25.603 32.6372 25.5956 32.6046 25.5953ZM32.604 25.6433C32.6185 25.6433 32.6298 25.6462 32.6381 25.6518C32.6463 25.6575 32.6505 25.6659 32.6507 25.6771C32.6505 25.6886 32.6463 25.6972 32.6381 25.7029C32.6298 25.7087 32.6185 25.7115 32.604 25.7115H32.5419V25.6433L32.604 25.6433Z" fill="white"/>
</g>
<defs>
<clipPath id="clip0_30_539">
<rect width="33" height="26" fill="white"/>
</clipPath>
</defs>
</svg>
