<svg width="38" height="38" viewBox="0 0 38 38" fill="none" xmlns="http://www.w3.org/2000/svg">
<path d="M29.2274 14.9105C29.3758 14.7918 29.45 14.7324 29.5242 14.673C30.5559 13.7972 31.877 13.8937 32.7602 14.9328C32.8492 15.0367 32.8938 15.0441 32.9828 14.955C33.0422 14.8882 33.109 14.8363 33.1684 14.7695C33.8586 14.0941 34.7715 13.8937 35.625 14.2722C36.5231 14.673 37.0055 15.3781 37.0129 16.3652C37.0278 18.4953 37.0203 20.6179 37.0203 22.748C37.0203 23.505 36.5528 23.98 35.8032 23.98C35.5063 23.98 35.2094 23.9578 34.9125 23.9875C34.6082 24.0171 34.5192 23.9207 34.5192 23.6015C34.534 21.5234 34.5266 19.4453 34.5266 17.3671C34.5266 17.2781 34.5266 17.1964 34.5266 17.1074C34.5192 16.625 34.3262 16.4246 33.866 16.4023C33.4504 16.38 33.161 16.6324 33.1164 17.0554C33.109 17.1519 33.1164 17.2558 33.1164 17.3523C33.1164 19.1484 33.1164 20.9371 33.1164 22.7332C33.1164 23.5199 32.6637 23.98 31.877 23.9726C31.4762 23.9652 30.9344 24.1507 30.7043 23.891C30.5039 23.6683 30.6375 23.1414 30.6375 22.748C30.6375 20.9074 30.6375 19.0593 30.6375 17.2187C30.6375 16.5656 30.2145 16.2316 29.6653 16.4543C29.3239 16.5953 29.2125 16.8699 29.2125 17.2261C29.2199 18.948 29.2125 20.6625 29.2125 22.3843C29.2125 22.5179 29.2125 22.6589 29.2125 22.7925C29.1903 23.5125 28.7301 23.9652 28.0176 23.9726C27.7207 23.98 27.4239 23.9504 27.127 23.98C26.8078 24.0097 26.7114 23.9207 26.7188 23.5793C26.7336 20.6625 26.7262 17.7457 26.7262 14.8214C26.7262 14.6953 26.7336 14.5765 26.7262 14.4504C26.7114 14.2871 26.7782 14.2351 26.9414 14.2351C27.6242 14.2425 28.2996 14.2425 28.9824 14.2351C29.1532 14.2351 29.2348 14.2796 29.2199 14.4652C29.2051 14.5988 29.2199 14.7175 29.2274 14.9105Z" fill="#02B9EF"/>
<path d="M13.4931 18.9332C13.4931 19.95 13.4931 20.9594 13.4931 21.9762C13.4856 23.2973 12.7954 23.9801 11.4743 23.9875C10.8954 23.9875 10.3091 23.9949 9.73016 23.9875C8.55751 23.9727 7.69657 23.1934 7.63719 22.0207C7.59266 21.182 7.58524 20.336 7.62977 19.4973C7.68915 18.2949 8.60946 17.4488 9.82665 17.434C10.1458 17.4266 10.4723 17.434 10.7915 17.434C11.1032 17.4266 11.222 17.2485 11.2145 16.9516C11.2145 16.6547 11.0809 16.5211 10.7841 16.536C10.4501 16.5434 10.1161 16.5434 9.78212 16.536C8.96571 16.5211 8.51298 16.0758 8.5204 15.2742C8.5204 14.9477 8.37196 14.5098 8.58719 14.3168C8.77274 14.1535 9.19579 14.2574 9.51493 14.2574C10.3462 14.25 11.17 14.2574 12.0013 14.2574C12.8845 14.2574 13.4856 14.8586 13.4931 15.7492C13.5005 16.8031 13.4931 17.8719 13.4931 18.9332ZM11.222 20.618C11.222 20.4918 11.222 20.3731 11.222 20.2469C11.222 19.4899 11.222 19.4899 10.4649 19.5195C10.0864 19.5344 9.8786 19.7274 9.87118 20.1207C9.86376 20.4324 9.86376 20.7367 9.87118 21.0485C9.8786 21.5828 10.1161 21.7238 10.888 21.7461C11.4595 21.761 11.17 21.3602 11.222 21.1375C11.2516 20.9742 11.2145 20.7887 11.222 20.618Z" fill="#06306F"/>
<path d="M20.0984 18.1242C20.0984 19.2598 20.1133 20.4027 20.091 21.5383C20.0762 22.4141 19.8684 23.2082 19.0223 23.6758C18.6809 23.8613 18.3098 23.9652 17.9238 23.9726C17.0703 23.9875 16.2168 23.9726 15.3633 23.9875C15.1555 23.9875 15.1109 23.9133 15.1184 23.7277C15.1332 23.416 15.1109 23.1117 15.1258 22.8C15.1406 22.2062 15.5934 21.7535 16.1871 21.7312C16.5731 21.7164 16.9516 21.7238 17.3375 21.7312C17.6492 21.7312 17.8199 21.6051 17.8199 21.2711C17.8199 20.9297 17.6566 20.8109 17.3449 20.8035C16.8254 20.7887 16.3059 20.8629 15.7938 20.7144C14.9106 20.4547 14.2648 19.7199 14.2426 18.807C14.1981 17.3598 14.2277 15.9125 14.2203 14.4652C14.2203 14.3019 14.2723 14.25 14.4356 14.2574C15.0441 14.2648 15.6453 14.2723 16.2539 14.2574C16.5211 14.25 16.484 14.3984 16.484 14.5617C16.484 15.6527 16.484 16.7363 16.484 17.8273C16.484 18.3023 16.7066 18.5547 17.1223 18.5695C17.6121 18.5844 17.8273 18.384 17.8273 17.8867C17.8273 16.7883 17.8348 15.6824 17.8199 14.584C17.8199 14.3242 17.8867 14.25 18.1465 14.2574C18.6883 14.2797 19.2375 14.2871 19.7793 14.2574C20.0762 14.2426 20.1207 14.3539 20.1133 14.6137C20.091 15.7789 20.0984 16.9515 20.0984 18.1242Z" fill="#06306F"/>
<path d="M1.18753 19.809C1.18753 18.5992 1.18753 17.382 1.18753 16.1723C1.18753 14.9848 1.91487 14.2426 3.10979 14.2574C3.88909 14.2648 4.66839 14.1684 5.44026 14.3168C6.42737 14.5098 7.05081 15.2742 7.05823 16.291C7.06565 17.3672 7.05823 18.4434 7.05823 19.5195C7.05823 20.8703 6.26409 21.6941 4.91331 21.7313C4.5051 21.7461 4.0969 21.7387 3.6887 21.7313C3.50315 21.7238 3.42151 21.7832 3.42893 21.9836C3.44378 22.2805 3.43635 22.5773 3.42893 22.8742C3.41409 23.5125 2.96135 23.9727 2.33049 23.9801C1.9594 23.9875 1.49182 24.1359 1.25432 23.9207C1.03167 23.7203 1.19495 23.2453 1.18753 22.8891C1.1801 21.8648 1.18753 20.8332 1.18753 19.809ZM3.42893 17.9906C3.42893 18.2281 3.42893 18.4582 3.42893 18.6957C3.42893 19.5344 3.42893 19.5344 4.2676 19.4602C4.63128 19.4305 4.80198 19.2523 4.8094 18.8887C4.81682 18.4731 4.79456 18.05 4.81682 17.6344C4.86135 16.432 4.6387 16.5508 3.65901 16.5434C3.48088 16.5434 3.42151 16.5953 3.42151 16.7734C3.43635 17.1742 3.42893 17.5824 3.42893 17.9906Z" fill="#06306F"/>
<path d="M22.1989 19.8239C22.1989 18.8368 22.1914 17.8422 22.2063 16.8551C22.2063 16.625 22.1543 16.5286 21.902 16.536C21.568 16.5508 21.1227 16.6473 20.9371 16.484C20.7071 16.2688 20.8852 15.8086 20.8555 15.4524C20.8555 15.4301 20.8555 15.4004 20.8555 15.3782C20.8555 15.0293 20.7442 14.6211 20.8926 14.3614C21.0411 14.1016 21.4938 14.2649 21.8129 14.1833C22.4438 14.02 22.9188 13.6563 23.3047 13.1516C23.5719 12.8102 23.9059 12.5653 24.3364 12.4836C24.5664 12.4391 24.7075 12.4688 24.6926 12.7657C24.6704 13.1813 24.6926 13.6043 24.6852 14.0274C24.6778 14.2055 24.7446 14.2649 24.9227 14.2575C25.2196 14.25 25.5164 14.2649 25.8133 14.25C25.9914 14.2426 26.0508 14.3094 26.0434 14.4875C26.036 15.0961 26.036 15.6973 26.0434 16.3059C26.0434 16.4766 25.9989 16.5657 25.8133 16.5434C25.7762 16.536 25.7391 16.5434 25.702 16.5434C25.3754 16.5731 24.9227 16.395 24.752 16.6176C24.5887 16.8254 24.6926 17.2559 24.6926 17.5899C24.6926 19.6086 24.6852 21.62 24.7 23.6387C24.7 23.9208 24.6258 24.0098 24.3438 23.9875C24.0766 23.9653 23.802 23.9875 23.5274 23.9801C22.7258 23.9504 22.1989 23.4086 22.1989 22.6071C22.1989 21.6793 22.1989 20.7516 22.1989 19.8239Z" fill="#02B9EF"/>
</svg>
