<svg width="38" height="38" viewBox="0 0 38 38" fill="none" xmlns="http://www.w3.org/2000/svg">
<path fill-rule="evenodd" clip-rule="evenodd" d="M15.6845 13.6894L13.9429 24.3923H16.7292L18.471 13.6894H15.6845ZM11.5986 13.6894L8.942 21.0507L8.62775 19.4656L8.62798 19.4661L8.55873 19.1108C8.23721 18.4179 7.49258 17.101 6.0865 15.9771C5.6708 15.6449 5.25177 15.3614 4.84668 15.1192L7.26109 24.3923H10.1642L14.5975 13.6894H11.5986ZM22.4732 16.6607C22.4732 15.4506 25.1868 15.6061 26.3792 16.2632L26.7768 13.9645C26.7768 13.9645 25.5497 13.4978 24.2706 13.4978C22.8878 13.4978 19.6041 14.1025 19.6041 17.0409C19.6041 19.8063 23.4581 19.8407 23.4581 21.2926C23.4581 22.7444 20.0015 22.485 18.8607 21.5691L18.4462 23.9718C18.4462 23.9718 19.6903 24.5765 21.5917 24.5765C23.4929 24.5765 26.3619 23.5916 26.3619 20.9123C26.3619 18.1296 22.4732 17.8705 22.4732 16.6607ZM33.8435 13.6894H31.6032C30.5687 13.6894 30.3168 14.487 30.3168 14.487L26.1615 24.3923H29.0657L29.6467 22.8026H33.189L33.5158 24.3923H36.0743L33.8435 13.6894ZM30.4497 20.6063L31.9139 16.601L32.7376 20.6063H30.4497Z" fill="#005BAC"/>
<path fill-rule="evenodd" clip-rule="evenodd" d="M7.72849 14.6969C7.72849 14.6969 7.61315 13.731 6.38186 13.731H1.90848L1.85608 13.9125C1.85608 13.9125 4.00634 14.3508 6.06925 15.9931C8.04065 17.5626 8.68376 19.5192 8.68376 19.5192L7.72849 14.6969Z" fill="#F6AC1D"/>
</svg>
