<svg width="174" height="174" viewBox="0 0 174 174" fill="none" xmlns="http://www.w3.org/2000/svg">
<g filter="url(#filter0_d_25_74)">
<rect x="25" y="19" width="124" height="124" rx="62" fill="#121212"/>
<path d="M87.0208 99.8999C89.506 99.8999 91.5208 97.8852 91.5208 95.3999C91.5208 92.9146 89.506 90.8999 87.0208 90.8999C84.5355 90.8999 82.5208 92.9146 82.5208 95.3999C82.5208 97.8852 84.5355 99.8999 87.0208 99.8999Z" fill="white"/>
<path d="M110.721 98.3999L113.121 95.9999C114.321 94.7999 114.321 92.9999 113.121 91.7999C111.921 90.5999 110.121 90.5999 108.921 91.7999L106.521 94.1999L104.121 91.7999C102.921 90.5999 101.121 90.5999 99.9208 91.7999C98.7208 92.9999 98.7208 94.7999 99.9208 95.9999L102.321 98.3999L99.9208 100.8C98.7208 102 98.7208 103.8 99.9208 105C100.521 105.6 101.421 105.9 102.021 105.9C102.621 105.9 103.521 105.6 104.121 105L106.521 102.6L108.921 105C109.521 105.6 110.421 105.9 111.021 105.9C111.621 105.9 112.521 105.6 113.121 105C114.321 103.8 114.321 102 113.121 100.8L110.721 98.3999Z" fill="white"/>
<path d="M87.0208 79.5C82.8208 79.5 78.9208 81.3 76.2208 84.3C75.0208 85.5 75.0208 87.3 76.2208 88.5C77.4208 89.7 79.2208 89.7 80.4208 88.5C84.0208 84.6 90.0208 84.6 93.3208 88.5C93.9208 89.1 94.8208 89.4 95.4208 89.4C96.0208 89.4 96.9208 89.1 97.5208 88.5C98.7208 87.3 98.7208 85.5 97.5208 84.3C95.1208 81.3 91.2208 79.5 87.0208 79.5Z" fill="white"/>
<path d="M101.421 79.4999C102.021 80.0999 102.621 80.3999 103.521 80.3999C104.421 80.3999 105.021 80.0999 105.621 79.4999C106.821 78.2999 106.821 76.4999 105.621 75.2999C100.521 70.4999 93.9207 67.7999 87.3207 67.7999C80.7207 67.7999 73.8207 70.4999 69.0207 75.2999C67.8207 76.4999 67.8207 78.2999 69.0207 79.4999C70.2207 80.6999 72.0207 80.6999 73.2207 79.4999C77.1207 75.5999 82.2207 73.4999 87.6207 73.4999C93.0207 73.4999 97.2207 75.5999 101.421 79.4999Z" fill="white"/>
<path d="M108.921 70.5C109.521 71.1 110.121 71.4 111.021 71.4C111.921 71.4 112.521 71.1 113.121 70.5C114.321 69.3 114.021 67.5 112.821 66.3C105.621 59.7 96.3208 56.1 86.7208 56.1C77.1208 56.1 68.4208 59.4 60.9208 66C59.7208 67.2 59.7208 69 60.6208 70.2C61.8208 71.4 63.6208 71.4 64.8208 70.5C71.4208 64.8 78.9208 61.8 87.0208 61.8C95.1208 61.8 102.621 64.8 108.921 70.5Z" fill="white"/>
</g>
<defs>
<filter id="filter0_d_25_74" x="0" y="0" width="174" height="174" filterUnits="userSpaceOnUse" color-interpolation-filters="sRGB">
<feFlood flood-opacity="0" result="BackgroundImageFix"/>
<feColorMatrix in="SourceAlpha" type="matrix" values="0 0 0 0 0 0 0 0 0 0 0 0 0 0 0 0 0 0 127 0" result="hardAlpha"/>
<feOffset dy="6"/>
<feGaussianBlur stdDeviation="12.5"/>
<feComposite in2="hardAlpha" operator="out"/>
<feColorMatrix type="matrix" values="0 0 0 0 0.117647 0 0 0 0 0.843137 0 0 0 0 0.376471 0 0 0 0.08 0"/>
<feBlend mode="normal" in2="BackgroundImageFix" result="effect1_dropShadow_25_74"/>
<feBlend mode="normal" in="SourceGraphic" in2="effect1_dropShadow_25_74" result="shape"/>
</filter>
</defs>
</svg>
