<svg width="174" height="174" viewBox="0 0 174 174" fill="none" xmlns="http://www.w3.org/2000/svg">
<g filter="url(#filter0_d_25_404)">
<rect x="25" y="19" width="124" height="124" rx="62" fill="#121212"/>
<path d="M104.187 44.1871H69.8135C68.5849 44.1871 67.4066 44.6752 66.5379 45.544C65.6691 46.4127 65.181 47.591 65.181 48.8196V113.18C65.181 114.409 65.6691 115.587 66.5379 116.456C67.4066 117.325 68.5849 117.813 69.8135 117.813H104.187C105.415 117.813 106.593 117.325 107.462 116.456C108.331 115.587 108.819 114.409 108.819 113.18V48.8196C108.819 47.591 108.331 46.4127 107.462 45.544C106.593 44.6752 105.415 44.1871 104.187 44.1871ZM105.731 113.18C105.731 113.59 105.568 113.983 105.278 114.272C104.989 114.562 104.596 114.724 104.187 114.724H69.8135C69.404 114.724 69.0112 114.562 68.7216 114.272C68.432 113.983 68.2694 113.59 68.2694 113.18V48.8196C68.2694 48.4101 68.432 48.0173 68.7216 47.7277C69.0112 47.4381 69.404 47.2755 69.8135 47.2755H104.187C104.596 47.2755 104.989 47.4381 105.278 47.7277C105.568 48.0173 105.731 48.4101 105.731 48.8196V113.18Z" fill="white"/>
<path d="M88.8064 106.788H85.1622C84.7527 106.788 84.3599 106.95 84.0703 107.24C83.7807 107.529 83.618 107.922 83.618 108.332C83.618 108.741 83.7807 109.134 84.0703 109.424C84.3599 109.713 84.7527 109.876 85.1622 109.876H88.8064C89.216 109.876 89.6087 109.713 89.8983 109.424C90.1879 109.134 90.3506 108.741 90.3506 108.332C90.3506 107.922 90.1879 107.529 89.8983 107.24C89.6087 106.95 89.216 106.788 88.8064 106.788Z" fill="white"/>
<path d="M80.181 82.2234V78.1698H82.479C84.7181 78.1698 86.0733 77.3499 86.5447 75.71H80.181V73.3541L82.7972 73.1462H86.5093C86.2736 72.4302 85.814 71.9336 85.1305 71.6564C84.447 71.3793 83.5632 71.2407 82.479 71.2407H80.181V67.1871H94.181V69.7509H89.5144C90.6457 70.5362 91.3645 71.668 91.6709 73.1462H94.181V75.71H91.7063C91.5413 77.1189 91.0817 78.2968 90.3275 79.2438C89.5733 80.1677 88.6423 80.8722 87.5346 81.3572L93.58 89.1871H87.7467L82.6911 82.2234H80.181Z" fill="white"/>
</g>
<defs>
<filter id="filter0_d_25_404" x="0" y="0" width="174" height="174" filterUnits="userSpaceOnUse" color-interpolation-filters="sRGB">
<feFlood flood-opacity="0" result="BackgroundImageFix"/>
<feColorMatrix in="SourceAlpha" type="matrix" values="0 0 0 0 0 0 0 0 0 0 0 0 0 0 0 0 0 0 127 0" result="hardAlpha"/>
<feOffset dy="6"/>
<feGaussianBlur stdDeviation="12.5"/>
<feComposite in2="hardAlpha" operator="out"/>
<feColorMatrix type="matrix" values="0 0 0 0 0.117647 0 0 0 0 0.843137 0 0 0 0 0.376471 0 0 0 0.08 0"/>
<feBlend mode="normal" in2="BackgroundImageFix" result="effect1_dropShadow_25_404"/>
<feBlend mode="normal" in="SourceGraphic" in2="effect1_dropShadow_25_404" result="shape"/>
</filter>
</defs>
</svg>
