<svg width="174" height="174" viewBox="0 0 174 174" fill="none" xmlns="http://www.w3.org/2000/svg">
<g filter="url(#filter0_d_25_98)">
<rect x="25" y="19" width="124" height="124" rx="62" fill="#121212"/>
<path d="M67.2071 98.1422C63.2415 98.1422 60.0071 101.362 60.0071 105.314C60.0071 109.266 63.2415 112.486 67.2071 112.486H72.4383C74.5899 112.486 76.5024 111.53 77.8243 110.039C77.8383 110.025 77.8665 110.025 77.8805 110.011C77.9649 109.927 78.0211 109.8 78.0915 109.716C78.2743 109.491 78.443 109.266 78.5836 109.012C79.9196 107.016 80.5524 104.386 80.5524 102.375C80.5524 100.012 80.5524 74.6297 80.5524 74.6297C80.5524 74.5453 80.5524 74.475 80.5524 74.3906C80.5524 74.3203 80.5524 74.2359 80.5524 74.1656C80.6649 72.1687 82.1274 70.5515 84.0821 70.1015C84.3211 70.0453 84.8415 69.9328 84.8415 69.9328L105.921 65.939C106.02 65.925 106.104 65.9109 106.202 65.8969C106.315 65.8828 106.413 65.8828 106.54 65.8828C108.241 65.8828 109.507 67.2187 109.507 68.864C109.507 68.864 109.507 83.7422 109.507 87.3422C109.507 90.9281 109.915 91.8281 103.812 91.8281H100.985C97.0055 91.8281 93.7852 95.0484 93.7852 99C93.7852 102.952 97.0055 106.172 100.985 106.172H106.216C108.776 106.172 111.012 104.85 112.291 102.853C112.291 102.839 112.306 102.853 112.32 102.853C113.585 101.137 113.993 98.55 113.993 95.0765C113.993 91.589 113.993 52.4953 113.993 52.4953C113.993 50.85 112.601 49.514 110.899 49.514C110.801 49.514 110.702 49.5281 110.618 49.5281L110.182 49.5984L79.5961 55.3922C77.6555 55.9125 75.8977 57.7687 75.7571 59.8078C75.7571 59.8219 75.7571 59.8219 75.7571 59.8359C75.7571 59.85 75.7571 59.85 75.7571 59.864C75.7571 59.864 75.7571 93.0797 75.7571 95.0344C75.7571 96.989 76.0383 98.1562 69.0493 98.1562H67.2071V98.1422Z" fill="white"/>
</g>
<defs>
<filter id="filter0_d_25_98" x="0" y="0" width="174" height="174" filterUnits="userSpaceOnUse" color-interpolation-filters="sRGB">
<feFlood flood-opacity="0" result="BackgroundImageFix"/>
<feColorMatrix in="SourceAlpha" type="matrix" values="0 0 0 0 0 0 0 0 0 0 0 0 0 0 0 0 0 0 127 0" result="hardAlpha"/>
<feOffset dy="6"/>
<feGaussianBlur stdDeviation="12.5"/>
<feComposite in2="hardAlpha" operator="out"/>
<feColorMatrix type="matrix" values="0 0 0 0 0.117647 0 0 0 0 0.843137 0 0 0 0 0.376471 0 0 0 0.08 0"/>
<feBlend mode="normal" in2="BackgroundImageFix" result="effect1_dropShadow_25_98"/>
<feBlend mode="normal" in="SourceGraphic" in2="effect1_dropShadow_25_98" result="shape"/>
</filter>
</defs>
</svg>
